<?xml version="1.0" encoding="UTF-8" standalone="no"?>
<svg
   viewBox="0 0 16 16"
   version="1.1"
   id="svg7"
   sodipodi:docname="ImmersiveDarkMode.svg"
   inkscape:version="1.3.2 (091e20e, 2023-11-25, custom)"
   xmlns:inkscape="http://www.inkscape.org/namespaces/inkscape"
   xmlns:sodipodi="http://sodipodi.sourceforge.net/DTD/sodipodi-0.dtd"
   xmlns="http://www.w3.org/2000/svg"
   xmlns:svg="http://www.w3.org/2000/svg"
   xmlns:rdf="http://www.w3.org/1999/02/22-rdf-syntax-ns#"
   xmlns:cc="http://creativecommons.org/ns#"
   xmlns:dc="http://purl.org/dc/elements/1.1/">
  <sodipodi:namedview
     id="namedview7"
     pagecolor="#ffffff"
     bordercolor="#000000"
     borderopacity="0.25"
     inkscape:showpageshadow="2"
     inkscape:pageopacity="0.0"
     inkscape:pagecheckerboard="0"
     inkscape:deskcolor="#d1d1d1"
     inkscape:zoom="31.926521"
     inkscape:cx="4.1344937"
     inkscape:cy="10.383217"
     inkscape:window-width="3440"
     inkscape:window-height="1334"
     inkscape:window-x="-11"
     inkscape:window-y="-11"
     inkscape:window-maximized="1"
     inkscape:current-layer="svg7" />
  <defs
     id="defs1">
    <style
       id="style1">.canvas{fill: none; opacity: 0;}.light-defaultgrey-10{fill: #212121; opacity: 0.1;}.light-defaultgrey{fill: #212121; opacity: 1;}.light-purple-10{fill: #6936aa; opacity: 0.1;}.light-purple{fill: #6936aa; opacity: 1;}.cls-1{opacity:0.75;}</style>
  </defs>
  <title
     id="title1">ImmersiveDarkMode</title>
  <g
     id="level-1"
     transform="translate(1)">
    <g
       class="cls-1"
       id="g3">
      <path
         class="light-defaultgrey-10"
         d="m 14.5,5 v 8.5 H 1.5 V 5 Z"
         id="path2" />
      <path
         class="light-defaultgrey"
         d="m 15,4.5 v 9 L 14.5,14 H 1.5 L 1,13.5 v -9 L 1.5,5 H 2 v 8 H 14 V 5 h 0.5 z"
         id="path3" />
    </g>
    <path
       class="light-defaultgrey-10"
       d="m 14.5,1.5 v 3 h -13 v -3 z"
       id="path4" />
    <path
       class="light-defaultgrey"
       d="M 14.5,1 H 1.5 L 1,1.5 v 3 L 1.5,5 h 13 L 15,4.5 v -3 z M 14,4 H 2 V 2 h 12 z"
       id="path5" />
  </g>
  <path
     style="display:inline;fill:#212121;fill-opacity:1;stroke:#ffffff;stroke-width:0.600013;stroke-dasharray:none;stroke-opacity:1"
     d="M 4.3058487,7.7000064 A 4.0001449,3.9999936 0 1 0 8.3059936,11.7 4.0001449,3.9999936 0 0 0 4.3058487,7.7000064 Z"
     id="path3-5" />
  <path
     style="display:inline;fill:#0095d7;fill-opacity:1;stroke-width:1.00002"
     d="m 4.3058487,14.699996 a 2.9621079,2.9619959 0 0 1 -1.0000366,-0.184 2.9821087,2.9819959 0 0 0 0,-5.6319923 2.9621079,2.9619959 0 0 1 1.0000366,-0.1839997 3.0001095,2.9999961 0 0 1 0,5.999992 z"
     id="path7" />
  <metadata
     id="metadata7">
    <rdf:RDF>
      <cc:Work
         rdf:about="">
        <dc:title>ImmersiveDarkMode</dc:title>
      </cc:Work>
    </rdf:RDF>
  </metadata>
</svg>
